HIERARCHY
ROOT Hips
{
	OFFSET 0.000000 0.000000 0.000000
	CHANNELS 6 Xposition Yposition Zposition Zrotation Yrotation Xrotation 
	JOINT LHipJoint
	{
		OFFSET 0.000000 0.000000 0.000000
		CHANNELS 3 Zrotation Yrotation Xrotation
		JOINT LeftUpLeg
		{
			OFFSET 1.363060 -1.794630 0.839290
			CHANNELS 3 Zrotation Yrotation Xrotation
			JOINT LeftLeg
			{
				OFFSET 2.448110 -6.726130 0.000000
				CHANNELS 3 Zrotation Yrotation Xrotation
				JOINT LeftFoot
				{
					OFFSET 2.562200 -7.039590 0.000000
					CHANNELS 3 Zrotation Yrotation Xrotation
					JOINT LeftToeBase
					{
						OFFSET 0.157640 -0.433110 2.322550
						CHANNELS 3 Zrotation Yrotation Xrotation
						End Site
						{
							OFFSET 0.000000 0.000000 0.000000
						}
					}
				}
			}
		}
	}
	JOINT RHipJoint
	{
		OFFSET 0.000000 0.000000 0.000000
		CHANNELS 3 Zrotation Yrotation Xrotation
		JOINT RightUpLeg
		{
			OFFSET -1.305520 -1.794630 0.839290
			CHANNELS 3 Zrotation Yrotation Xrotation
			JOINT RightLeg
			{
				OFFSET -2.542530 -6.985550 0.000000
				CHANNELS 3 Zrotation Yrotation Xrotation
				JOINT RightFoot
				{
					OFFSET -2.568260 -7.056230 0.000000
					CHANNELS 3 Zrotation Yrotation Xrotation
					JOINT RightToeBase
					{
						OFFSET -0.164730 -0.452590 2.363150
						CHANNELS 3 Zrotation Yrotation Xrotation
						End Site
						{
							OFFSET 0.000000 0.000000 0.000000
						}
					}
				}
			}
		}
	}
	JOINT LowerBack
	{
		OFFSET 0.000000 0.000000 0.000000
		CHANNELS 3 Zrotation Yrotation Xrotation
		JOINT Spine
		{
			OFFSET 0.028270 2.035590 -0.193380
			CHANNELS 3 Zrotation Yrotation Xrotation
			JOINT Spine1
			{
				OFFSET 0.056720 2.048850 -0.042750
				CHANNELS 3 Zrotation Yrotation Xrotation
				JOINT Neck
				{
					OFFSET 0.000000 0.000000 0.000000
					CHANNELS 3 Zrotation Yrotation Xrotation
					JOINT Neck1
					{
						OFFSET -0.054170 1.746240 0.172020
						CHANNELS 3 Zrotation Yrotation Xrotation
						JOINT Head
						{
							OFFSET 0.104070 1.761360 -0.123970
							CHANNELS 3 Zrotation Yrotation Xrotation
							End Site
							{
								OFFSET 0.000000 0.000000 0.000000
							}
						}
					}
				}
				JOINT LeftShoulder
				{
					OFFSET 0.000000 0.000000 0.000000
					CHANNELS 3 Zrotation Yrotation Xrotation
					JOINT LeftArm
					{
						OFFSET 3.362410 1.200890 -0.311210
						CHANNELS 3 Zrotation Yrotation Xrotation
						JOINT LeftForeArm
						{
							OFFSET 4.983000 -0.000000 -0.000000
							CHANNELS 3 Zrotation Yrotation Xrotation
							JOINT LeftHand
							{
								OFFSET 3.483560 -0.000000 -0.000000
								CHANNELS 3 Zrotation Yrotation Xrotation
								JOINT LeftFingerBase
								{
									OFFSET 0.000000 0.000000 0.000000
									CHANNELS 3 Zrotation Yrotation Xrotation
									JOINT LeftHandIndex1
									{
										OFFSET 0.715260 -0.000000 -0.000000
										CHANNELS 3 Zrotation Yrotation Xrotation
										End Site
										{
											OFFSET 0.000000 0.000000 0.000000
										}
									}
								}
								JOINT LThumb
								{
									OFFSET 0.000000 0.000000 0.000000
									CHANNELS 3 Zrotation Yrotation Xrotation
									End Site
									{
										OFFSET 0.000000 0.000000 0.000000
									}
								}
							}
						}
					}
				}
				JOINT RightShoulder
				{
					OFFSET 0.000000 0.000000 0.000000
					CHANNELS 3 Zrotation Yrotation Xrotation
					JOINT RightArm
					{
						OFFSET -3.136600 1.374050 -0.404650
						CHANNELS 3 Zrotation Yrotation Xrotation
						JOINT RightForeArm
						{
							OFFSET -5.241900 -0.000000 -0.000000
							CHANNELS 3 Zrotation Yrotation Xrotation
							JOINT RightHand
							{
								OFFSET -3.444170 -0.000000 -0.000000
								CHANNELS 3 Zrotation Yrotation Xrotation
								JOINT RightFingerBase
								{
									OFFSET 0.000000 0.000000 0.000000
									CHANNELS 3 Zrotation Yrotation Xrotation
									JOINT RightHandIndex1
									{
										OFFSET -0.622530 -0.000000 -0.000000
										CHANNELS 3 Zrotation Yrotation Xrotation
										End Site
										{
											OFFSET 0.000000 0.000000 0.000000
										}
									}
								}
								JOINT RThumb
								{
									OFFSET 0.000000 0.000000 0.000000
									CHANNELS 3 Zrotation Yrotation Xrotation
									End Site
									{
										OFFSET 0.000000 0.000000 0.000000
									}
								}
							}
						}
					}
				}
			}
		}
	}
}
MOTION
Frames: 7
Frame Time: 0.008333
-10.542888 17.390646 4.190121 -157.166143 -83.149904 156.009863 -7.287516 -1.629984 1.696436 -3.731987 3.773167 -22.240255 6.336554 15.968855 48.630989 7.114585 -15.427343 4.851789 0.667600 -5.225200 -14.552000 6.200312 1.573309 0.740403 9.843057 4.037377 -19.802159 -6.270264 -16.155724 50.339987 -2.303650 0.626384 -3.386062 -0.645700 5.140300 -14.309300 4.187127 -0.255987 12.320136 1.117420 0.282638 -2.078373 -2.613479 0.127365 -5.822016 -1.131704 3.387413 -2.412365 4.084244 3.918578 8.091379 -1.147400 2.180600 -1.430200 -0.168112 -8.825961 2.952048 -52.910399 -9.154048 35.623860 63.230263 -51.227075 -43.821057 1.244783 -1.878381 23.952403 -14.356429 4.616322 -1.693400 -7.125000 0.000000 0.000000 -33.916700 33.832800 11.014800 4.407816 9.011371 2.677966 50.024219 14.856653 41.818770 -60.570524 50.129847 -40.969099 -1.393073 3.798080 37.356086 30.851907 -19.732735 -14.012400 7.125000 0.000000 0.000000 53.941100 -44.141900 1.690700 
-10.539899 17.391073 4.190121 -156.840893 -83.171745 155.702044 -7.281755 -1.635044 1.685535 -3.698973 3.723321 -22.237227 6.328386 15.962951 48.612478 7.145948 -15.581217 4.951746 0.603700 -4.973600 -13.833200 6.201599 1.580655 0.733097 9.871038 4.012725 -19.837498 -6.269250 -16.157770 50.344367 -2.269586 0.554684 -3.390929 -0.664000 5.211200 -14.511900 4.213034 -0.273552 12.250649 1.122826 0.259323 -2.061956 -2.580744 0.120078 -5.709365 -1.252022 3.352109 -2.513164 4.180317 3.856380 8.104433 -1.057200 2.150600 -1.413800 -0.175912 -8.829332 2.953683 -52.897331 -9.257587 35.607265 63.224896 -51.223304 -43.815672 1.248761 -1.873542 24.014319 -14.391909 4.491207 -1.659200 -7.125000 0.000000 0.000000 -33.894100 33.714400 11.124500 4.398838 8.996837 2.675138 50.027378 14.884510 41.804759 -60.566777 50.133427 -40.965743 -1.406046 3.809217 37.329988 31.068751 -19.752318 -14.140600 7.125000 0.000000 0.000000 54.080000 -44.114400 1.754900 
-10.536375 17.390967 4.189907 -157.008290 -83.229668 155.856551 -7.297441 -1.637667 1.684514 -3.726846 3.687491 -22.229340 6.320738 15.963059 48.599597 7.111519 -15.425609 4.888500 0.673500 -5.247900 -14.617000 6.195107 1.580484 0.736137 9.832402 3.969913 -19.838502 -6.270965 -16.155823 50.336474 -2.276307 0.551692 -3.465823 -0.652600 5.167300 -14.386200 4.185827 -0.288765 12.251069 1.116528 0.233317 -2.063734 -2.589388 0.108795 -5.720780 -1.277678 3.304743 -2.484283 4.216873 3.784018 8.113465 -1.025200 2.115300 -1.418300 -0.183318 -8.833845 2.955488 -52.843804 -9.297343 35.679844 63.200726 -51.214832 -43.784530 1.251304 -1.875748 23.987841 -14.421307 4.482032 -1.660600 -7.125000 0.000000 0.000000 -33.913300 33.705200 11.142600 4.394379 8.995520 2.671153 50.077949 14.876459 41.839070 -60.489594 50.112942 -40.885398 -1.420644 3.815807 37.238853 31.221776 -19.716143 -14.202800 7.125000 0.000000 0.000000 54.138800 -44.058100 1.872400 
-10.533599 17.391607 4.186918 -157.038791 -83.210466 155.819870 -7.294944 -1.622950 1.699732 -3.715291 3.723698 -22.192841 6.324099 15.963794 48.596832 7.078194 -15.247323 4.802082 0.753400 -5.544000 -15.466900 6.200720 1.567849 0.746571 9.848372 3.998809 -19.773987 -6.280170 -16.161728 50.354441 -2.364975 0.706293 -3.708013 -0.592800 4.929200 -13.706700 4.181590 -0.277807 12.327983 1.112941 0.250098 -2.073590 -2.596922 0.114861 -5.826406 -1.286351 3.256683 -2.324529 4.238490 3.705162 8.109152 -1.009700 2.076300 -1.456200 -0.187183 -8.845502 2.958038 -52.838615 -9.267163 35.777710 63.218810 -51.219684 -43.790466 1.247967 -1.876931 23.953431 -14.362829 4.521116 -1.666200 -7.125000 0.000000 0.000000 -33.886900 33.747800 11.087400 4.394675 8.992385 2.667461 50.135099 14.826549 41.887306 -60.361319 50.077635 -40.755824 -1.429411 3.819571 37.131687 31.271266 -19.680439 -14.211900 7.125000 0.000000 0.000000 54.142700 -44.024900 1.939900 
-10.526873 17.390967 4.182433 -157.647567 -83.218460 156.200162 -7.316086 -1.581692 1.747132 -3.731535 3.735065 -22.015270 6.325087 15.969354 48.613805 7.103377 -15.369670 4.794689 0.710000 -5.385200 -15.010500 6.196568 1.533501 0.769200 9.822001 3.993082 -19.583109 -6.294780 -16.168768 50.389271 -2.483731 0.962627 -3.696700 -0.511200 4.583000 -12.722900 4.074828 -0.257240 12.628963 1.106904 0.269627 -2.069026 -2.574264 0.122991 -5.987295 -1.268122 3.226549 -2.169067 4.241462 3.653096 8.073573 -1.016200 2.048300 -1.500800 -0.190378 -8.864540 2.963633 -52.859918 -9.257466 35.821784 63.263257 -51.224319 -43.825583 1.240586 -1.868538 24.014300 -14.182970 4.414445 -1.613500 -7.125000 0.000000 0.000000 -33.717000 33.667400 11.090700 4.398166 8.999581 2.670606 50.171111 14.765845 41.858867 -60.291142 50.053569 -40.688813 -1.431871 3.824242 37.115894 31.314721 -19.682858 -14.239000 7.125000 0.000000 0.000000 54.171800 -44.020200 1.951600 
-10.525485 17.390219 4.183928 -158.527273 -83.158346 157.240100 -7.332786 -1.621798 1.722410 -3.815546 3.775665 -22.175023 6.322486 15.967268 48.604592 7.099565 -15.336616 4.738778 0.711600 -5.391300 -15.028100 6.175104 1.563988 0.733868 9.738346 4.048382 -19.758110 -6.304239 -16.169892 50.394201 -2.490934 0.979376 -3.655254 -0.519600 4.619700 -12.827000 4.015179 -0.207342 12.394892 1.096324 0.318290 -2.074859 -2.595317 0.148763 -5.904689 -1.228795 3.194758 -2.141074 4.226095 3.612075 8.039455 -1.036700 2.025100 -1.539600 -0.186940 -8.854696 2.964321 -52.852053 -9.340354 35.815732 63.232155 -51.217017 -43.794403 1.239366 -1.861643 24.092449 -14.106859 4.267645 -1.561200 -7.125000 0.000000 0.000000 -33.607200 33.540700 11.167400 4.396427 8.990418 2.670168 50.164818 14.767568 41.780844 -60.277691 50.056314 -40.686459 -1.428372 3.822191 37.157499 31.270121 -19.670439 -14.207000 7.125000 0.000000 0.000000 54.136100 -44.018300 1.952800 
-10.513954 17.384774 4.183181 -158.518364 -83.126312 157.257844 -7.326359 -1.633904 1.712951 -3.810745 3.793948 -22.239259 6.320382 15.962855 48.591161 7.079279 -15.236980 4.730699 0.755500 -5.551400 -15.488100 6.171771 1.578208 0.719216 9.757100 4.080679 -19.841844 -6.316153 -16.179124 50.435285 -2.451368 0.898758 -3.674920 -0.544400 4.727000 -13.131600 4.004783 -0.203734 12.414071 1.099708 0.324328 -2.082270 -2.573789 0.150475 -5.895408 -1.260456 3.049519 -2.290514 4.250297 3.422406 8.076240 -1.002600 1.932800 -1.476300 -0.184989 -8.863159 2.955776 -52.817559 -9.440263 35.766293 63.149006 -51.180937 -43.712517 1.238252 -1.857874 24.177698 -14.030330 4.130124 -1.512800 -7.125000 0.000000 0.000000 -33.503100 33.424000 11.235700 4.396049 9.002172 2.663883 50.120496 14.793820 41.721216 -60.301620 50.053915 -40.714312 -1.416133 3.811637 37.147497 31.050845 -19.677606 -14.094100 7.125000 0.000000 0.000000 54.019800 -44.067900 1.844400 
